# xmcd
#
# Track frame offsets: 
#        150
#        19297
#        29374
#        46687
#        61140
#        76488
#        85722
#        103932
#        121127
#        135128
#        148325
#        159932
#        174337
#        183411
#        200279
#        218646
#        232395
#        243502
#        253674
#
# Disc length: 3580 seconds
#
# Revision: 0
# Processed by: cddbd v1.5.2PL0 Copyright (c) Steve Scherf et al.
# Submitted via: ExactAudioCopy v0.95a4
#
DISCID=fd0dfa13
DTITLE=Millie Jackson - It Hurts So Good
DYEAR=1973
DGENRE=Soul
TTITLE0=I Cry
TTITLE1=Hypocrisy
TTITLE2=Two-Faced World
TTITLE3=It Hurts So Good
TTITLE4=Don't Send Nobody Else
TTITLE5=Hypocrisy (Reprise)
TTITLE6=Breakaway (Previously Unreleased)
TTITLE7=Good To The Very Last Drop
TTITLE8=Help Yourself
TTITLE9=Love Doctor
TTITLE10=Now That You Got It
TTITLE11=Close My Eyes
TTITLE12=Breakaway (Reprise)
TTITLE13=It Hurts So Good (Alternate Mix With Additional Strings)
TTITLE14=Help Yourself (Unedited Master)
TTITLE15=Here Comes Love (Demo)
TTITLE16=That's My Style (Incomplete Demo)
TTITLE17=Hypocrisy (Alternate Version)
TTITLE18=Breakaway (Alternate Take)
EXTD=
EXTT0=
EXTT1=
EXTT2=
EXTT3=
EXTT4=
EXTT5=
EXTT6=
EXTT7=
EXTT8=
EXTT9=
EXTT10=
EXTT11=
EXTT12=
EXTT13=
EXTT14=
EXTT15=
EXTT16=
EXTT17=
EXTT18=
PLAYORDER=
